<svg xmlns="http://www.w3.org/2000/svg" width="14.669" height="16.136" viewBox="0 0 14.669 16.136">
  <g id="notes" transform="translate(-3 -1.5)">
    <path id="Path_2230" data-name="Path 2230" d="M9,8.233A.733.733,0,0,1,9.733,7.5h7.334a.733.733,0,0,1,0,1.467H9.733A.733.733,0,0,1,9,8.233Z" transform="translate(-3.066 -3.066)" fill="#2951a3"/>
    <path id="Path_2231" data-name="Path 2231" d="M9,14.233a.733.733,0,0,1,.733-.733h7.334a.733.733,0,0,1,0,1.467H9.733A.733.733,0,0,1,9,14.233Z" transform="translate(-3.066 -6.132)" fill="#2951a3"/>
    <path id="Path_2232" data-name="Path 2232" d="M9.733,19.5a.733.733,0,1,0,0,1.467h7.334a.733.733,0,0,0,0-1.467Z" transform="translate(-3.066 -9.199)" fill="#2951a3"/>
    <path id="Path_2233" data-name="Path 2233" d="M9,26.233a.733.733,0,0,1,.733-.733h2.934a.733.733,0,1,1,0,1.467H9.733A.733.733,0,0,1,9,26.233Z" transform="translate(-3.066 -12.265)" fill="#2951a3"/>
    <path id="Path_2234" data-name="Path 2234" d="M3,3.7A2.2,2.2,0,0,1,5.2,1.5H15.469a2.2,2.2,0,0,1,2.2,2.2V15.435a2.2,2.2,0,0,1-2.2,2.2H5.2a2.2,2.2,0,0,1-2.2-2.2Zm2.2-.733H15.469A.733.733,0,0,1,16.2,3.7V15.435a.733.733,0,0,1-.733.733H5.2a.733.733,0,0,1-.733-.733V3.7A.733.733,0,0,1,5.2,2.967Z" fill="#2951a3" fill-rule="evenodd"/>
  </g>
</svg>
