<svg xmlns="http://www.w3.org/2000/svg" width="16.599" height="16.599" viewBox="0 0 16.599 16.599">
  <g id="noun_new_1408303" transform="translate(-201.9 -160.44)">
    <g id="Group_119" data-name="Group 119" transform="translate(186 145)">
      <g id="Group_118" data-name="Group 118" transform="translate(15 15)">
        <path id="Path_419" data-name="Path 419" d="M36.095,36.219H33.248a.248.248,0,0,0-.248.248V37.7h0a.248.248,0,0,0,.248.248h2.847a.124.124,0,0,1,.124.124v2.847h0a.248.248,0,0,0,.248.248H37.7a.248.248,0,0,0,.248-.248V38.076h0a.124.124,0,0,1,.124-.124h2.847a.248.248,0,0,0,.248-.248V36.466h0a.248.248,0,0,0-.248-.248H38.076a.124.124,0,0,1-.124-.124V33.248h0A.248.248,0,0,0,37.7,33H36.466a.248.248,0,0,0-.248.248v2.847h0A.124.124,0,0,1,36.095,36.219Z" transform="translate(-28 -28.543)" fill="#2951a3" fill-rule="evenodd"/>
        <circle id="Ellipse_69" data-name="Ellipse 69" cx="7.699" cy="7.699" r="7.699" transform="translate(1.5 1.04)" fill="none" stroke="#2951a3" stroke-width="1.2"/>
      </g>
    </g>
  </g>
</svg>
