<svg xmlns="http://www.w3.org/2000/svg" width="18" height="18" viewBox="0 0 18 18">
  <g id="add" transform="translate(-3 -3)">
    <path id="Path_2267" data-name="Path 2267" d="M3,12a9,9,0,1,1,9,9A9,9,0,0,1,3,12Zm9-7.2A7.2,7.2,0,1,0,19.2,12,7.2,7.2,0,0,0,12,4.8Z" transform="translate(0 0)" fill="#2951a3" fill-rule="evenodd"/>
    <path id="Path_2268" data-name="Path 2268" d="M15.3,9.9a.9.9,0,0,0-1.8,0v3.6H9.9a.9.9,0,0,0,0,1.8h3.6v3.6a.9.9,0,0,0,1.8,0V15.3h3.6a.9.9,0,0,0,0-1.8H15.3Z" transform="translate(-2.4 -2.4)" fill="#2951a3" fill-rule="evenodd"/>
  </g>
</svg>
