<svg xmlns="http://www.w3.org/2000/svg" width="16" height="16" viewBox="0 0 16 16">
  <path id="Icon_ionic-ios-contacts" data-name="Icon ionic-ios-contacts" d="M11.375,3.375a8,8,0,1,0,8,8A8,8,0,0,0,11.375,3.375Zm5.512,10.15c-.312-.1-.912-.131-1.135-.4-.112-.135-.038-.638-.038-.638a2.427,2.427,0,0,0,1.192-.235c.15-.088.081-.1,0-.235a4.746,4.746,0,0,1-.25-2.369A1.962,1.962,0,0,0,15.89,7.94a2.45,2.45,0,0,0-1.208-.265,2.7,2.7,0,0,0-.973.158c-1.631.654-.669,2.815-1.227,4.054-.1.208-.235.281.008.4a2.975,2.975,0,0,0,1.112.242s.012.485,0,.535c-.042.188-.454.319-.608.362a5.066,5.066,0,0,0-.631.219.153.153,0,0,0,.031.292,2.973,2.973,0,0,1,.442.112,4.181,4.181,0,0,1,1.769.962,2.624,2.624,0,0,1,.769,1.715.477.477,0,0,1-.212.442l-.219.138a.11.11,0,0,1-.165-.092h0a2.621,2.621,0,0,0-1.762-2.508c-.519-.181-1.081-.192-1.6-.373-.158-.054-.469-.119-.535-.3a2.18,2.18,0,0,1-.073-.569q-.012-.219-.012-.438c0-.1.246-.3.3-.388a2.924,2.924,0,0,0,.265-1.2c.335.092.377-.527.435-.715.042-.131.192-.8-.1-.908a1.618,1.618,0,0,0,.162-.565,3.4,3.4,0,0,0-.042-1.512A2.382,2.382,0,0,0,9.537,6.144,2.445,2.445,0,0,0,7.094,7.6a3.175,3.175,0,0,0-.108,1.519,1.9,1.9,0,0,0,.181.7c-.246.108-.173.681-.131.819.062.2.115.9.465.8a5.5,5.5,0,0,0,.15.935,1.4,1.4,0,0,0,.315.535c.069.077.1.085.1.185a3.84,3.84,0,0,1-.073.915c-.077.292-.719.415-.977.469a5.669,5.669,0,0,0-1.592.442A6.926,6.926,0,0,1,11.31,4.452a6.95,6.95,0,0,1,4.915,1.981,6.94,6.94,0,0,1,1.519,7.677A1.817,1.817,0,0,0,16.887,13.525Z" transform="translate(-3.375 -3.375)" fill="#2951a3"/>
</svg>
