<svg id="Group_25" data-name="Group 25" xmlns="http://www.w3.org/2000/svg" width="10.215" height="10.988" viewBox="0 0 15.215 15.988">
  <g id="Group_26" data-name="Group 26">
    <path id="Path_224" data-name="Path 224" d="M18,3.476H16.834v-.37a.606.606,0,1,0-1.212,0v.387H12.93V3.106a.606.606,0,1,0-1.212,0v.387H9.008V3.106a.606.606,0,1,0-1.212,0v.387H6.635A1.947,1.947,0,0,0,4.7,5.428V16.553a1.947,1.947,0,0,0,1.935,1.935H17.979a1.947,1.947,0,0,0,1.935-1.935V5.412A1.911,1.911,0,0,0,18,3.476ZM6.652,4.688H7.814v.387a.606.606,0,0,0,1.212,0V4.688h2.71v.387a.606.606,0,1,0,1.212,0V4.688h2.71v.387a.606.606,0,1,0,1.212,0V4.688h1.161a.747.747,0,0,1,.741.741V6.573H5.912V5.428A.736.736,0,0,1,6.652,4.688ZM18,17.294H6.652a.747.747,0,0,1-.741-.741V7.768H18.719v8.785A.722.722,0,0,1,18,17.294Z" transform="translate(-4.7 -2.5)" fill="#2951a3"/>
    <path id="Path_225" data-name="Path 225" d="M22.352,41H20.888a.488.488,0,0,0-.488.488v.522a.488.488,0,0,0,.488.488h1.464a.488.488,0,0,0,.488-.488v-.522A.488.488,0,0,0,22.352,41Z" transform="translate(-17.758 -34.52)" fill="#2951a3"/>
    <path id="Path_226" data-name="Path 226" d="M67.035,41H65.588a.488.488,0,0,0-.488.488v.522a.488.488,0,0,0,.488.488h1.464a.488.488,0,0,0,.488-.488v-.522A.492.492,0,0,0,67.035,41Z" transform="translate(-54.935 -34.52)" fill="#2951a3"/>
    <path id="Path_227" data-name="Path 227" d="M44.652,41H43.188a.488.488,0,0,0-.488.488v.522a.488.488,0,0,0,.488.488h1.464a.488.488,0,0,0,.488-.488v-.522A.488.488,0,0,0,44.652,41Z" transform="translate(-36.305 -34.52)" fill="#2951a3"/>
    <path id="Path_228" data-name="Path 228" d="M22.352,57.8H20.888a.488.488,0,0,0-.488.488v.522a.488.488,0,0,0,.488.488h1.464a.488.488,0,0,0,.488-.488v-.522A.488.488,0,0,0,22.352,57.8Z" transform="translate(-17.758 -48.493)" fill="#2951a3"/>
    <path id="Path_229" data-name="Path 229" d="M67.035,57.8H65.588a.488.488,0,0,0-.488.488v.522a.488.488,0,0,0,.488.488h1.464a.488.488,0,0,0,.488-.488v-.522A.492.492,0,0,0,67.035,57.8Z" transform="translate(-54.935 -48.493)" fill="#2951a3"/>
    <path id="Path_230" data-name="Path 230" d="M44.652,57.8H43.188a.488.488,0,0,0-.488.488v.522a.488.488,0,0,0,.488.488h1.464a.488.488,0,0,0,.488-.488v-.522A.488.488,0,0,0,44.652,57.8Z" transform="translate(-36.305 -48.493)" fill="#2951a3"/>
    <path id="Path_231" data-name="Path 231" d="M22.352,74.7H20.888a.488.488,0,0,0-.488.488v.522a.488.488,0,0,0,.488.488h1.464a.488.488,0,0,0,.488-.488v-.522A.488.488,0,0,0,22.352,74.7Z" transform="translate(-17.758 -62.549)" fill="#2951a3"/>
    <path id="Path_232" data-name="Path 232" d="M67.035,74.7H65.588a.488.488,0,0,0-.488.488v.522a.488.488,0,0,0,.488.488h1.464a.488.488,0,0,0,.488-.488v-.522A.492.492,0,0,0,67.035,74.7Z" transform="translate(-54.935 -62.549)" fill="#2951a3"/>
    <path id="Path_233" data-name="Path 233" d="M44.652,74.7H43.188a.488.488,0,0,0-.488.488v.522a.488.488,0,0,0,.488.488h1.464a.488.488,0,0,0,.488-.488v-.522A.488.488,0,0,0,44.652,74.7Z" transform="translate(-36.305 -62.549)" fill="#2951a3"/>
  </g>
</svg>
