<svg xmlns="http://www.w3.org/2000/svg" width="16.599" height="16.599" viewBox="0 0 16.599 16.599">
  <g id="noun_Info_1174604" transform="translate(-0.4 -0.4)">
    <g id="Group_76" data-name="Group 76" transform="translate(1 1)">
      <g id="Group_75" data-name="Group 75">
        <g id="Group_74" data-name="Group 74">
          <g id="Group_73" data-name="Group 73">
            <g id="Group_72" data-name="Group 72">
              <circle id="Ellipse_68" data-name="Ellipse 68" cx="7.699" cy="7.699" r="7.699" fill="none" stroke="#2951a3" stroke-width="1.2"/>
              <path id="Path_413" data-name="Path 413" d="M18.062,17.148l-.165.458q-.742.2-1.185.3a4.509,4.509,0,0,1-1.027.1,2.74,2.74,0,0,1-1.4-.3.871.871,0,0,1-.5-.755,1.835,1.835,0,0,1,.037-.364,3.168,3.168,0,0,1,.12-.42l.615-1.485q.082-.214.139-.4a1.242,1.242,0,0,0,.056-.348.437.437,0,0,0-.172-.4,1.331,1.331,0,0,0-.66-.112,2.471,2.471,0,0,0-.491.051q-.251.051-.431.1l.165-.458q.607-.168,1.162-.287a4.992,4.992,0,0,1,1.05-.12A2.675,2.675,0,0,1,16.753,13a.869.869,0,0,1,.484.761,2.935,2.935,0,0,1-.034.341,1.665,1.665,0,0,1-.124.448l-.615,1.48a3.035,3.035,0,0,0-.135.407,1.5,1.5,0,0,0-.06.346.417.417,0,0,0,.195.4,1.517,1.517,0,0,0,.675.107,2.8,2.8,0,0,0,.51-.053A3.822,3.822,0,0,0,18.062,17.148Zm.157-6.212a.78.78,0,0,1-.431.659,2.125,2.125,0,0,1-2.081,0,.718.718,0,0,1,0-1.32,2.108,2.108,0,0,1,2.081,0A.786.786,0,0,1,18.219,10.936Z" transform="translate(-8.107 -6.161)" fill="#2951a3" fill-rule="evenodd"/>
            </g>
          </g>
        </g>
      </g>
    </g>
  </g>
</svg>
