<svg xmlns="http://www.w3.org/2000/svg" width="50.561" height="52.361" viewBox="0 0 50.561 52.361">
  <g id="Icons_nurse" data-name="Icons/ nurse" transform="translate(1.5 1.5)">
    <g id="Icons_lungs" data-name="Icons/ lungs">
      <g id="Icons_lungs-2" data-name="Icons/ lungs">
        <path id="Path" d="M20.122,21.951V25.61c0,12.439-3.659,13.354-9.146,13.354C5.854,38.963,0,49.573,0,32.012S9.512,0,15.183,0c1.463,0,2.744.549,3.476,3.476" transform="translate(0 7.317)" fill="none" stroke="#2951a3" stroke-linecap="round" stroke-linejoin="round" stroke-miterlimit="10" stroke-width="3"/>
        <path id="Path-2" data-name="Path" d="M0,21.951V25.61C0,38.049,3.659,38.963,9.146,38.963c5.122,0,10.976,10.61,10.976-6.951S10.61,0,5.122,0C3.659,0,2.378.549,1.646,3.476" transform="translate(27.439 7.317)" fill="none" stroke="#2951a3" stroke-linecap="round" stroke-linejoin="round" stroke-miterlimit="10" stroke-width="3"/>
        <path id="Path-3" data-name="Path" d="M10.976,0V12.073A9.653,9.653,0,0,1,7.5,19.39L0,25.61" transform="translate(12.805)" fill="none" stroke="#2951a3" stroke-linecap="round" stroke-linejoin="round" stroke-miterlimit="10" stroke-width="3"/>
        <path id="Path-4" data-name="Path" d="M0,0A9.653,9.653,0,0,0,3.476,7.317l7.5,6.22" transform="translate(23.78 12.073)" fill="none" stroke="#2951a3" stroke-linecap="round" stroke-linejoin="round" stroke-miterlimit="10" stroke-width="3"/>
      </g>
    </g>
  </g>
</svg>
