<svg xmlns="http://www.w3.org/2000/svg" width="18.463" height="16.724" viewBox="0 0 18.463 16.724">
  <path id="Path_421" data-name="Path 421" d="M24.632,26.732a.621.621,0,0,0-.621.621V31.2a.622.622,0,0,1-.621.621H14.7a.622.622,0,0,1-.621-.621v-13a.622.622,0,0,1,.621-.621H23.39a.622.622,0,0,1,.621.621V22.04a.621.621,0,0,0,1.242,0V18.2a1.865,1.865,0,0,0-1.863-1.863H14.7A1.865,1.865,0,0,0,12.834,18.2v13A1.865,1.865,0,0,0,14.7,33.058H23.39A1.865,1.865,0,0,0,25.253,31.2V27.353A.621.621,0,0,0,24.632,26.732Zm6.664-2.04a.639.639,0,0,0-.012-.116c0-.021-.012-.04-.018-.061s-.01-.037-.017-.055a.623.623,0,0,0-.037-.071c-.007-.012-.012-.024-.019-.036a.626.626,0,0,0-.08-.1l-3.569-3.569a.621.621,0,0,0-.878.878l2.51,2.511H18.008a.621.621,0,1,0,0,1.242H29.177l-2.511,2.511a.621.621,0,0,0,.878.878l3.571-3.571.009-.011a.6.6,0,0,0,.068-.083c.011-.017.019-.035.029-.053s.021-.035.029-.054a.648.648,0,0,0,.021-.067c0-.016.011-.032.015-.049A.625.625,0,0,0,31.3,24.7.027.027,0,0,1,31.3,24.691Z" transform="translate(-12.834 -16.334)" fill="#2951a3"/>
</svg>
