<svg xmlns="http://www.w3.org/2000/svg" width="32" height="32" viewBox="0 0 32 32">
  <g id="Group_2512" data-name="Group 2512" transform="translate(11871 -7970)">
    <path id="profile" d="M23.143,21.614c0,.18-.322.264-.525.414s.011.574-.409.671-.465.621-.907.7-.654,1.228-1.343,1.273-.845.473-1.355.5-1.733,1.187-2.535,1.2-3.337.99-3.749.99L8.536,26.8l-3.372-.848-.945-.778-1.091-.5-1.2-.616-1.06-1.2-.659-.831-.473-.495c.03-1.319,1.023-2.484,2.642-3.5a15.353,15.353,0,0,1,6.159-2.012v-.742a5.941,5.941,0,0,1-2.023-1.461A7.1,7.1,0,0,1,5.165,11.61a12.982,12.982,0,0,1-.719-2.72A20.453,20.453,0,0,1,4.22,5.754a5.654,5.654,0,0,1,.562-2.563A4.734,4.734,0,0,1,6.333,1.382,7.325,7.325,0,0,1,8.6.348,10.662,10.662,0,0,1,11.413,0a10.726,10.726,0,0,1,2.81.348,7.3,7.3,0,0,1,2.27,1.034,4.74,4.74,0,0,1,1.551,1.809,5.66,5.66,0,0,1,.562,2.563q0,7.868-4.316,9.576v.7a15.346,15.346,0,0,1,6.159,2.012C22.067,19.05,23.113,20.3,23.143,21.614Z" transform="translate(-11866.425 7974.48)" fill="#fff"/>
    <g id="Path_2246" data-name="Path 2246" transform="translate(-11871 7970)" fill="none">
      <path d="M16,0A16,16,0,1,1,0,16,16,16,0,0,1,16,0Z" stroke="none"/>
      <path d="M 16 2 C 12.26045989990234 2 8.744749069213867 3.456249237060547 6.100500106811523 6.100500106811523 C 3.456249237060547 8.744749069213867 2 12.26045989990234 2 16 C 2 19.73954010009766 3.456249237060547 23.2552490234375 6.100500106811523 25.89949989318848 C 8.744749069213867 28.54375076293945 12.26045989990234 30 16 30 C 19.73954010009766 30 23.2552490234375 28.54375076293945 25.89949989318848 25.89949989318848 C 28.54375076293945 23.2552490234375 30 19.73954010009766 30 16 C 30 12.26045989990234 28.54375076293945 8.744749069213867 25.89949989318848 6.100500106811523 C 23.2552490234375 3.456249237060547 19.73954010009766 2 16 2 M 16 0 C 24.8365592956543 0 32 7.163440704345703 32 16 C 32 24.8365592956543 24.8365592956543 32 16 32 C 7.163440704345703 32 0 24.8365592956543 0 16 C 0 7.163440704345703 7.163440704345703 0 16 0 Z" stroke="none" fill="#fff"/>
    </g>
  </g>
</svg>
