<svg xmlns="http://www.w3.org/2000/svg" width="45.683" height="53.294" viewBox="0 0 45.683 53.294">
  <g id="Icon_ionic-ios-body" data-name="Icon ionic-ios-body" transform="translate(-4.5 -2.25)">
    <path id="Path_2242" data-name="Path 2242" d="M26.046,7.96a5.71,5.71,0,1,1-5.71-5.71A5.71,5.71,0,0,1,26.046,7.96Z" transform="translate(7.006)" fill="#2951a3"/>
    <path id="Path_2243" data-name="Path 2243" d="M47.328,10.125H7.355a2.855,2.855,0,1,0,0,5.71H19.074a2.519,2.519,0,0,1,2.046,1.689c.559,1.44.286,4-.059,6.151l-.452,2.546a.044.044,0,0,1-.012.036h0L16.98,46.743A2.857,2.857,0,0,0,19.3,50.05a2.827,2.827,0,0,0,3.284-2.32l2.5-14.264v.024s.738-3.866,2.2-3.866h.131c1.487,0,2.2,3.866,2.2,3.866v-.012l2.5,14.264a2.846,2.846,0,1,0,5.6-1L34.1,26.257h0a.044.044,0,0,0-.012-.036l-.452-2.546c-.345-2.153-.619-4.711-.059-6.151a2.519,2.519,0,0,1,2.046-1.689H47.328a2.855,2.855,0,0,0,0-5.71Z" transform="translate(0 5.449)" fill="#2951a3"/>
  </g>
</svg>
