<svg xmlns="http://www.w3.org/2000/svg" width="20.585" height="20.585" viewBox="0 0 20.585 20.585">
  <g id="Icon_feather-settings" data-name="Icon feather-settings" transform="translate(-0.85 -0.85)">
    <path id="Path_2226" data-name="Path 2226" d="M18.76,16.13a2.63,2.63,0,1,1-2.63-2.63A2.63,2.63,0,0,1,18.76,16.13Z" transform="translate(-4.987 -4.987)" fill="none" stroke="#2951a3" stroke-linecap="round" stroke-linejoin="round" stroke-width="1.3"/>
    <path id="Path_2227" data-name="Path 2227" d="M17.629,13.772a1.446,1.446,0,0,0,.289,1.6l.053.053A1.754,1.754,0,1,1,15.491,17.9l-.053-.053a1.458,1.458,0,0,0-2.472,1.034v.149a1.753,1.753,0,1,1-3.506,0v-.079a1.446,1.446,0,0,0-.947-1.324,1.446,1.446,0,0,0-1.6.289l-.053.053a1.754,1.754,0,1,1-2.481-2.481l.053-.053A1.458,1.458,0,0,0,3.4,12.966H3.253a1.753,1.753,0,1,1,0-3.506h.079a1.446,1.446,0,0,0,1.324-.947,1.446,1.446,0,0,0-.289-1.6l-.053-.053A1.754,1.754,0,1,1,6.795,4.384l.053.053a1.446,1.446,0,0,0,1.6.289h.07A1.446,1.446,0,0,0,9.389,3.4V3.253a1.753,1.753,0,1,1,3.506,0v.079a1.458,1.458,0,0,0,2.472,1.034l.053-.053A1.754,1.754,0,1,1,17.9,6.795l-.053.053a1.446,1.446,0,0,0-.289,1.6v.07a1.446,1.446,0,0,0,1.324.877h.149a1.753,1.753,0,1,1,0,3.506h-.079a1.446,1.446,0,0,0-1.324.877Z" fill="none" stroke="#2951a3" stroke-linecap="round" stroke-linejoin="round" stroke-width="1.3"/>
  </g>
</svg>
