<svg id="zoom-in" xmlns="http://www.w3.org/2000/svg" width="14.114" height="14.118" viewBox="0 0 14.114 14.118">
  <path id="Path_177" data-name="Path 177" d="M13.634,53.57a6,6,0,0,1-.5-7.926,6,6,0,1,0,8.423,8.423,6,6,0,0,1-7.926-.5Zm0,0" transform="translate(-10.471 -44.033)" fill="#52c2bd"/>
  <path id="Path_179" data-name="Path 179" d="M11.526,10.59a6.35,6.35,0,1,0-.5.5l2.926,2.926a.353.353,0,0,0,.5-.5Zm-8.731-.243a5.649,5.649,0,1,1,7.952-8.027l.037.037a5.649,5.649,0,0,1-7.989,7.989Zm0,0" transform="translate(-0.441 0)" fill="#c7c7c7"/>
</svg>
