<svg xmlns="http://www.w3.org/2000/svg" width="45.008" height="45.008" viewBox="0 0 45.008 45.008">
  <g id="search-2" transform="translate(0 -1.253)">
    <path id="Path_2081" data-name="Path 2081" d="M201.256,93.919a10.762,10.762,0,1,1,15.219,0A10.774,10.774,0,0,1,201.256,93.919Z" transform="translate(-180.224 -68.69)" fill="#b0c9fc"/>
    <g id="Group_2418" data-name="Group 2418" transform="translate(0 5.536)">
      <path id="Union_69" data-name="Union 69" d="M-2224.086-5999.049l-3.911-3.911a1.324,1.324,0,0,1-.388-.937,1.324,1.324,0,0,1,.388-.938l10.4-10.4a1.329,1.329,0,0,1,.938-.388,1.328,1.328,0,0,1,.936.388l1.019,1.019,2.429-2.429a1.326,1.326,0,0,1,1.875,0,1.328,1.328,0,0,1,0,1.875l-2.429,2.429,1.019,1.019a1.327,1.327,0,0,1,0,1.874l-10.4,10.4a1.319,1.319,0,0,1-.938.388A1.319,1.319,0,0,1-2224.086-5999.049Zm-1.1-4.849,2.037,2.037,8.521-8.522-2.036-2.037Z" transform="translate(2228.386 6039.386)" fill="#2951a3"/>
      <path id="Path_2082" data-name="Path 2082" d="M202.274,64.6a15.116,15.116,0,1,0,0,30.232c.085,0,.17,0,.6-.012a14.8,14.8,0,0,0,10.09-4.41A15.116,15.116,0,0,0,202.274,64.6Z" transform="translate(-173.631 -67.633)" fill="none" stroke="#2951a3" stroke-width="2.5"/>
    </g>
  </g>
</svg>
