<svg xmlns="http://www.w3.org/2000/svg" xmlns:xlink="http://www.w3.org/1999/xlink" width="112.092" height="112.353" viewBox="0 0 112.092 112.353">
  <defs>
    <linearGradient id="linear-gradient" y1="0.5" x2="1" y2="0.5" gradientUnits="objectBoundingBox">
      <stop offset="0" stop-color="#cfcecf"/>
      <stop offset="1" stop-color="#b3b3b3"/>
    </linearGradient>
    <filter id="Path_2250" x="0" y="0" width="112.092" height="112.353" filterUnits="userSpaceOnUse">
      <feOffset dy="3" input="SourceAlpha"/>
      <feGaussianBlur stdDeviation="2.5" result="blur"/>
      <feFlood flood-opacity="0.149"/>
      <feComposite operator="in" in2="blur"/>
      <feComposite in="SourceGraphic"/>
    </filter>
  </defs>
  <g id="platinumLogo" transform="translate(7.5 4.5)" opacity="0.5">
    <g transform="matrix(1, 0, 0, 1, -7.5, -4.5)" filter="url(#Path_2250)">
      <path id="Path_2250-2" data-name="Path 2250" d="M291.848,574.708h-3.582a5.834,5.834,0,0,1-5.834-5.831V564.6H232.3c-11.585,0-21.917-6.054-26.318-15.422a22.128,22.128,0,0,1,3.289-24l.458-.48,10.252-9.319A69.615,69.615,0,0,0,232.375,500.5l8.011-12.864c9.081-10.958,23.621-12.083,34-8.343,10.771,3.883,17.462,12.669,17.462,22.928v52.973h3.628a5.471,5.471,0,0,1,5.462,5.467V564.6h-9.1Z" transform="translate(-196.35 -472.85)" fill="url(#linear-gradient)"/>
    </g>
    <g id="Group_2524" data-name="Group 2524" transform="translate(37.04 22.395)">
      <path id="Path_2251" data-name="Path 2251" d="M252.953,548.606a4.713,4.713,0,0,1-4.69,4.689h-4.69V518.951q0-9.653,5.655-13.172a22.808,22.808,0,0,1,12.275-3.517,19.859,19.859,0,0,1,6.965,1.306,13,13,0,0,1,5.587,3.8,21.98,21.98,0,0,1,4.138,13.793q0,8.69-4.138,14.069a12.938,12.938,0,0,1-10.622,5.238,14.023,14.023,0,0,1-6.069-1.242,10.377,10.377,0,0,1-4.414-4.275Zm15.724-27.035a14.094,14.094,0,0,0-2.068-8.275,6.848,6.848,0,0,0-5.931-2.9,6.715,6.715,0,0,0-5.793,2.9q-1.932,2.619-1.931,8.275,0,5.238,2.069,7.857a6.844,6.844,0,0,0,5.93,2.9,6.581,6.581,0,0,0,5.655-2.9A13.284,13.284,0,0,0,268.677,521.571Z" transform="translate(-243.573 -502.262)" fill="#fff"/>
    </g>
  </g>
</svg>
