<svg xmlns="http://www.w3.org/2000/svg" xmlns:xlink="http://www.w3.org/1999/xlink" width="112.218" height="112.48" viewBox="0 0 112.218 112.48">
  <defs>
    <linearGradient id="linear-gradient" y1="0.5" x2="1" y2="0.5" gradientUnits="objectBoundingBox">
      <stop offset="0.109" stop-color="#e9982d"/>
      <stop offset="1" stop-color="#f9bb32"/>
    </linearGradient>
    <filter id="Path_2263" x="0" y="0" width="112.218" height="112.48" filterUnits="userSpaceOnUse">
      <feOffset dy="3" input="SourceAlpha"/>
      <feGaussianBlur stdDeviation="2.5" result="blur"/>
      <feFlood flood-opacity="0.149"/>
      <feComposite operator="in" in2="blur"/>
      <feComposite in="SourceGraphic"/>
    </filter>
  </defs>
  <g id="goldLogo" transform="translate(7.501 4.502)">
    <g transform="matrix(1, 0, 0, 1, -7.5, -4.5)" filter="url(#Path_2263)">
      <path id="Path_2263-2" data-name="Path 2263" d="M291.963,404.44h-3.587a5.841,5.841,0,0,1-5.841-5.841v-4.278H232.34c-11.6,0-21.945-6.062-26.353-15.441a22.157,22.157,0,0,1,3.294-24.035l.459-.48,10.266-9.331a69.714,69.714,0,0,0,12.407-14.9l8.021-12.88c9.093-10.973,23.652-12.1,34.046-8.354,10.785,3.888,17.484,12.686,17.484,22.958v53.034H295.6a5.478,5.478,0,0,1,5.47,5.481v3.95h-9.108Z" transform="translate(-196.35 -302.46)" opacity="0.5" fill="url(#linear-gradient)"/>
    </g>
    <g id="Group_2555" data-name="Group 2555" transform="translate(38.49 25.006)" opacity="0.85">
      <path id="Path_2264" data-name="Path 2264" d="M265.052,362.014v-2.085a9.383,9.383,0,0,1-5.952,4.295,12.213,12.213,0,0,1-7.425-.614,13.774,13.774,0,0,1-6.321-5.462,18.7,18.7,0,0,1-2.639-10.491q0-7.607,3.495-12.334T257.44,330.6a20.02,20.02,0,0,1,10.921,3.19q5.03,3.192,5.032,11.783v17.3q0,8.588-5.032,11.719a20.3,20.3,0,0,1-10.921,3.129q-11.292,0-13.99-10.554h8.961a6.84,6.84,0,0,0,7.053,3.129,6.664,6.664,0,0,0,3.682-2.394,9.974,9.974,0,0,0,1.905-5.884ZM251.062,347.9q0,8.469,4.908,9.389t7.24-2.269a9.156,9.156,0,0,0,1.6-4.232,17.86,17.86,0,0,0,.061-5.709,11.427,11.427,0,0,0-2.025-5.032,5.393,5.393,0,0,0-4.66-2.214q-4.174,0-5.642,3.07a15.969,15.969,0,0,0-1.476,7Z" transform="translate(-242.695 -330.599)" fill="#fff"/>
    </g>
  </g>
</svg>
