<svg xmlns="http://www.w3.org/2000/svg" width="97.218" height="97.48" viewBox="0 0 97.218 97.48">
  <g id="goldLogo" transform="translate(0.001 0.002)">
    <path id="Path_2263" data-name="Path 2263" d="M291.963,404.44h-3.587a5.841,5.841,0,0,1-5.841-5.841v-4.278H232.34c-11.6,0-21.945-6.062-26.353-15.441a22.157,22.157,0,0,1,3.294-24.035l.459-.48,10.266-9.331a69.714,69.714,0,0,0,12.407-14.9l8.021-12.88c9.093-10.973,23.652-12.1,34.046-8.354,10.785,3.888,17.484,12.686,17.484,22.958v53.034H295.6a5.478,5.478,0,0,1,5.47,5.481v3.95h-9.108Z" transform="translate(-203.848 -306.962)" fill="#e0e0e0"/>
    <g id="Group_2524" data-name="Group 2524" transform="translate(40.121 21.023)">
      <path id="Path_2251" data-name="Path 2251" d="M252.953,506.951a4.713,4.713,0,0,0-4.69-4.689h-4.69v34.344q0,9.653,5.655,13.172a22.808,22.808,0,0,0,12.275,3.517,19.859,19.859,0,0,0,6.965-1.306,13,13,0,0,0,5.587-3.8,21.98,21.98,0,0,0,4.138-13.793q0-8.69-4.138-14.069a12.938,12.938,0,0,0-10.622-5.238,14.023,14.023,0,0,0-6.069,1.242,10.377,10.377,0,0,0-4.414,4.275Zm15.724,27.035a14.094,14.094,0,0,1-2.068,8.275,6.848,6.848,0,0,1-5.931,2.9,6.716,6.716,0,0,1-5.793-2.9q-1.932-2.619-1.931-8.275,0-5.238,2.069-7.857a6.844,6.844,0,0,1,5.931-2.9,6.581,6.581,0,0,1,5.655,2.9A13.284,13.284,0,0,1,268.677,533.986Z" transform="translate(-243.573 -502.262)" fill="#fff"/>
    </g>
  </g>
</svg>
